<?xml version="1.0" standalone="no"?>
<!DOCTYPE svg PUBLIC "-//W3C//DTD SVG 20010904//EN"
 "http://www.w3.org/TR/2001/REC-SVG-20010904/DTD/svg10.dtd">
<svg version="1.0" xmlns="http://www.w3.org/2000/svg"
 width="512.000000pt" height="512.000000pt" viewBox="0 0 512.000000 512.000000"
 preserveAspectRatio="xMidYMid meet">
<metadata>
Created by potrace 1.11, written by Peter Selinger 2001-2013
</metadata>
<g transform="translate(0.000000,512.000000) scale(0.100000,-0.100000)"
fill="#000000" stroke="none">
<path d="M2380 4139 c-175 -19 -367 -77 -530 -159 -162 -81 -274 -163 -411
-299 -136 -137 -218 -249 -299 -411 -393 -786 -75 -1738 715 -2132 374 -187
808 -217 1211 -83 333 111 637 346 826 640 264 409 327 909 173 1371 -111 333
-346 637 -640 826 -309 200 -682 288 -1045 247z m612 -640 c91 -19 196 -77
270 -150 167 -164 210 -407 111 -624 -36 -79 -44 -87 -502 -548 -257 -257
-487 -482 -514 -499 -139 -90 -325 -89 -466 2 -141 90 -219 265 -192 428 23
133 33 146 408 523 232 233 359 353 389 368 154 77 336 20 419 -130 27 -49 30
-63 30 -144 0 -78 -4 -97 -27 -140 -36 -68 -484 -515 -516 -515 -54 0 -102 48
-102 102 0 15 74 96 229 252 241 244 251 257 237 331 -8 41 -48 82 -92 94 -75
21 -86 12 -426 -326 -219 -218 -325 -331 -344 -366 -66 -123 -14 -280 115
-344 50 -25 163 -24 216 1 40 20 817 781 915 898 65 77 93 152 93 248 0 266
-266 443 -513 340 -48 -20 -102 -70 -415 -382 l-361 -358 -42 0 c-57 0 -92 33
-92 87 0 36 14 51 338 376 185 186 364 358 397 382 126 91 285 125 437 94z"/>
</g>
</svg>
